# xmcd
#
# Track frame offsets:
#	150
#	12432
#	27147
#	40830
#	57175
#	71395
#	84225
#	97312
#	109605
#	127552
#	141220
#	155727
#
# Disc length: 2279 seconds
#
# Revision: 1
# Processed by: cddbd v1.5.1PL0 Copyright (c) Steve Scherf et al.
# Submitted via: CDex 1.50Beta5
#
DISCID=9308e50c
DTITLE=COBRA - REALITY CHECK
DYEAR=1900
DGENRE=
TTITLE0=WE ONE FIGHT
TTITLE1=KING OF ROCK
TTITLE2=burnin up!
TTITLE3=アメリカンPRIDE
TTITLE4=ALL THE YOUNG DAYS
TTITLE5=デストロイarms
TTITLE6=PUNK IT DAMN
TTITLE7=イナイ!イナイ!fight back!
TTITLE8=宣誓!攻撃!
TTITLE9=GET OUT OUR HOUSE
TTITLE10=SAVE YOU
TTITLE11=THIS IS アナーキー
EXTD=
EXTT0=
EXTT1=
EXTT2=
EXTT3=
EXTT4=
EXTT5=
EXTT6=
EXTT7=
EXTT8=
EXTT9=
EXTT10=
EXTT11=
PLAYORDER=
